<svg xmlns="http://www.w3.org/2000/svg" xmlns:xlink="http://www.w3.org/1999/xlink" width="2500" zoomAndPan="magnify" viewBox="0 0 1874.88 599.999999" height="800" preserveAspectRatio="xMidYMid meet" version="1.0"><defs><g/><clipPath id="55ac941442"><path d="M 1574.152344 435.460938 L 1653.78125 435.460938 L 1653.78125 514.730469 L 1574.152344 514.730469 Z M 1574.152344 435.460938 " clip-rule="nonzero"/></clipPath><clipPath id="52f5b73d8a"><path d="M 1352 435.460938 L 1431.570312 435.460938 L 1431.570312 514.730469 L 1352 514.730469 Z M 1352 435.460938 " clip-rule="nonzero"/></clipPath><clipPath id="f2d63c2d05"><path d="M 937.816406 40.386719 L 1664.957031 40.386719 L 1664.957031 416.40625 L 937.816406 416.40625 Z M 937.816406 40.386719 " clip-rule="nonzero"/></clipPath></defs><g clip-path="url(#55ac941442)"><path fill="#00bf63" d="M 1613.890625 435.628906 C 1635.730469 435.628906 1653.445312 453.339844 1653.445312 475.179688 C 1653.445312 497.019531 1635.730469 514.730469 1613.890625 514.730469 C 1592.050781 514.730469 1574.339844 497.019531 1574.339844 475.179688 C 1574.339844 453.339844 1592.050781 435.628906 1613.890625 435.628906 " fill-opacity="1" fill-rule="nonzero"/></g><g clip-path="url(#52f5b73d8a)"><path fill="#00bf63" d="M 1391.757812 435.628906 C 1413.597656 435.628906 1431.308594 453.339844 1431.308594 475.179688 C 1431.308594 497.019531 1413.597656 514.730469 1391.757812 514.730469 C 1369.917969 514.730469 1352.207031 497.019531 1352.207031 475.179688 C 1352.207031 453.339844 1369.917969 435.628906 1391.757812 435.628906 " fill-opacity="1" fill-rule="nonzero"/></g><g clip-path="url(#f2d63c2d05)"><path fill="#00bf63" d="M 1290.085938 118.191406 C 1292.390625 117.800781 1294.757812 117.59375 1297.175781 117.59375 L 1573.648438 117.59375 C 1596.902344 117.59375 1615.757812 136.449219 1615.757812 159.703125 C 1615.757812 182.957031 1596.902344 201.808594 1573.648438 201.808594 L 1368.226562 201.808594 C 1394.996094 241.023438 1414.53125 285.292969 1425.878906 332.269531 C 1427.824219 331.996094 1429.804688 331.851562 1431.828125 331.851562 L 1622.847656 331.851562 C 1646.105469 331.851562 1664.957031 350.707031 1664.957031 373.957031 C 1664.957031 397.214844 1646.105469 416.070312 1622.847656 416.070312 L 1350.429688 416.070312 C 1338.800781 268.957031 1249.117188 136.988281 1108.03125 83.769531 C 1052.113281 62.675781 994.085938 56.203125 937.816406 62.472656 C 1018.941406 33.636719 1108.730469 31.929688 1193.664062 63.964844 C 1229.214844 77.375 1261.492188 95.796875 1290.085938 118.191406 " fill-opacity="1" fill-rule="nonzero"/></g><g fill="#ffbd59" fill-opacity="1"><g transform="translate(174.107371, 273.70169)"><g><path d="M 54.1875 35.90625 L 44.84375 21.796875 C 45.257812 21.242188 45.8125 20.550781 46.5 19.71875 C 47.1875 18.882812 48.640625 17.328125 50.859375 15.046875 C 53.078125 12.765625 55.222656 10.757812 57.296875 9.03125 C 59.367188 7.300781 61.789062 5.742188 64.5625 4.359375 C 67.332031 2.972656 69.894531 2.28125 72.25 2.28125 L 72.25 1.453125 C 52.039062 -2.421875 35.742188 -12.382812 23.359375 -28.4375 C 10.972656 -44.488281 4.78125 -63.585938 4.78125 -85.734375 C 4.78125 -110.648438 13.082031 -131.648438 29.6875 -148.734375 C 46.289062 -165.828125 66.425781 -174.375 90.09375 -174.375 C 113.894531 -174.375 134.03125 -165.828125 150.5 -148.734375 C 166.96875 -131.648438 175.203125 -110.648438 175.203125 -85.734375 C 175.203125 -65.390625 169.734375 -47.46875 158.796875 -31.96875 C 147.867188 -16.46875 133.476562 -6.019531 115.625 -0.625 L 115.625 0.203125 C 116.457031 0.203125 120.125 0.859375 126.625 2.171875 C 133.132812 3.492188 138.328125 4.15625 142.203125 4.15625 C 147.460938 4.15625 152.238281 3.21875 156.53125 1.34375 C 160.820312 -0.519531 163.796875 -2.351562 165.453125 -4.15625 L 167.9375 -7.0625 L 180.1875 19.3125 C 179.914062 20 179.46875 20.859375 178.84375 21.890625 C 178.21875 22.929688 176.796875 24.765625 174.578125 27.390625 C 172.367188 30.023438 169.914062 32.378906 167.21875 34.453125 C 164.519531 36.535156 160.921875 38.40625 156.421875 40.0625 C 151.921875 41.726562 147.113281 42.5625 142 42.5625 C 133.550781 42.5625 123.238281 39.859375 111.0625 34.453125 C 98.882812 29.054688 88.367188 26.359375 79.515625 26.359375 C 74.671875 26.359375 70.132812 27.15625 65.90625 28.75 C 61.6875 30.34375 58.675781 31.96875 56.875 33.625 Z M 46.921875 -85.734375 C 46.921875 -79.085938 47.679688 -72.894531 49.203125 -67.15625 C 50.722656 -61.414062 53.109375 -56.191406 56.359375 -51.484375 C 59.609375 -46.773438 64.101562 -43.070312 69.84375 -40.375 C 75.59375 -37.675781 82.34375 -36.328125 90.09375 -36.328125 C 104.625 -36.328125 115.414062 -41.03125 122.46875 -50.4375 C 129.53125 -59.851562 133.0625 -71.617188 133.0625 -85.734375 C 133.0625 -99.710938 129.460938 -111.441406 122.265625 -120.921875 C 115.078125 -130.398438 104.351562 -135.140625 90.09375 -135.140625 C 75.976562 -135.140625 65.253906 -130.363281 57.921875 -120.8125 C 50.585938 -111.269531 46.921875 -99.578125 46.921875 -85.734375 Z M 46.921875 -85.734375 "/></g></g></g><g fill="#ffbd59" fill-opacity="1"><g transform="translate(354.084706, 273.70169)"><g><path d="M 47.125 -106.5 L 47.125 -55.84375 C 47.125 -45.320312 48.710938 -37.847656 51.890625 -33.421875 C 55.078125 -28.992188 60.476562 -26.78125 68.09375 -26.78125 C 75.707031 -26.78125 81.101562 -28.992188 84.28125 -33.421875 C 87.46875 -37.847656 89.0625 -45.320312 89.0625 -55.84375 L 89.0625 -106.5 L 125.796875 -106.5 L 125.796875 -46.921875 C 125.796875 -29.203125 121.191406 -16.429688 111.984375 -8.609375 C 102.785156 -0.796875 88.148438 3.109375 68.078125 3.109375 C 48.015625 3.109375 33.378906 -0.796875 24.171875 -8.609375 C 14.972656 -16.429688 10.375 -29.203125 10.375 -46.921875 L 10.375 -106.5 Z M 47.125 -106.5 "/></g></g></g><g fill="#ffbd59" fill-opacity="1"><g transform="translate(490.261375, 273.70169)"><g><path d="M 15.984375 -165.859375 C 20.273438 -170.148438 25.394531 -172.296875 31.34375 -172.296875 C 37.289062 -172.296875 42.410156 -170.148438 46.703125 -165.859375 C 50.992188 -161.578125 53.140625 -156.457031 53.140625 -150.5 C 53.140625 -144.550781 50.992188 -139.429688 46.703125 -135.140625 C 42.410156 -130.847656 37.289062 -128.703125 31.34375 -128.703125 C 25.394531 -128.703125 20.273438 -130.847656 15.984375 -135.140625 C 11.691406 -139.429688 9.546875 -144.550781 9.546875 -150.5 C 9.546875 -156.457031 11.691406 -161.578125 15.984375 -165.859375 Z M 12.453125 -106.5 L 12.453125 0 L 49.203125 0 L 49.203125 -106.5 Z M 12.453125 -106.5 "/></g></g></g><g fill="#ffbd59" fill-opacity="1"><g transform="translate(552.952466, 273.70169)"><g><path d="M 69.125 -79.515625 C 62.207031 -79.515625 56.253906 -76.953125 51.265625 -71.828125 C 46.285156 -66.703125 43.796875 -60.546875 43.796875 -53.359375 C 43.796875 -46.015625 46.285156 -39.78125 51.265625 -34.65625 C 56.253906 -29.539062 62.207031 -26.984375 69.125 -26.984375 C 72.445312 -26.984375 75.59375 -27.398438 78.5625 -28.234375 C 81.539062 -29.066406 83.722656 -29.894531 85.109375 -30.71875 L 86.984375 -31.96875 L 99.4375 -6.4375 C 98.46875 -5.738281 97.117188 -4.867188 95.390625 -3.828125 C 93.660156 -2.796875 89.710938 -1.382812 83.546875 0.40625 C 77.390625 2.207031 70.785156 3.109375 63.734375 3.109375 C 48.085938 3.109375 34.347656 -2.390625 22.515625 -13.390625 C 10.691406 -24.390625 4.78125 -37.570312 4.78125 -52.9375 C 4.78125 -68.4375 10.691406 -81.753906 22.515625 -92.890625 C 34.347656 -104.035156 48.085938 -109.609375 63.734375 -109.609375 C 70.785156 -109.609375 77.285156 -108.773438 83.234375 -107.109375 C 89.191406 -105.453125 93.414062 -103.796875 95.90625 -102.140625 L 99.4375 -99.640625 L 86.984375 -74.53125 C 82.410156 -77.851562 76.457031 -79.515625 69.125 -79.515625 Z M 69.125 -79.515625 "/></g></g></g><g fill="#ffbd59" fill-opacity="1"><g transform="translate(654.877388, 273.70169)"><g><path d="M 134.109375 -106.5 L 83.453125 -55.640625 L 139.09375 0 L 91.75 0 L 49.203125 -42.5625 L 49.203125 0 L 12.453125 0 L 12.453125 -178.53125 L 49.203125 -178.53125 L 49.203125 -69.34375 L 86.359375 -106.5 Z M 134.109375 -106.5 "/></g></g></g><g fill="#ffbd59" fill-opacity="1"><g transform="translate(788.978175, 273.70169)"><g/></g></g><g fill="#ffbd59" fill-opacity="1"><g transform="translate(845.649258, 273.70169)"><g><path d="M 12.453125 -171.265625 L 74.9375 -171.265625 C 92.375 -171.265625 106.488281 -166.765625 117.28125 -157.765625 C 128.082031 -148.773438 133.484375 -135.695312 133.484375 -118.53125 C 133.484375 -101.375 128.015625 -87.914062 117.078125 -78.15625 C 106.148438 -68.40625 92.101562 -63.53125 74.9375 -63.53125 L 51.484375 -63.53125 L 51.484375 0 L 12.453125 0 Z M 51.484375 -94.65625 L 62.484375 -94.65625 C 71.203125 -94.65625 78.363281 -96.421875 83.96875 -99.953125 C 89.570312 -103.484375 92.375 -109.265625 92.375 -117.296875 C 92.375 -125.453125 89.570312 -131.296875 83.96875 -134.828125 C 78.363281 -138.359375 71.203125 -140.125 62.484375 -140.125 L 51.484375 -140.125 Z M 51.484375 -94.65625 "/></g></g></g><g fill="#ffbd59" fill-opacity="1"><g transform="translate(983.901786, 273.70169)"><g><path d="M 15.984375 -165.859375 C 20.273438 -170.148438 25.394531 -172.296875 31.34375 -172.296875 C 37.289062 -172.296875 42.410156 -170.148438 46.703125 -165.859375 C 50.992188 -161.578125 53.140625 -156.457031 53.140625 -150.5 C 53.140625 -144.550781 50.992188 -139.429688 46.703125 -135.140625 C 42.410156 -130.847656 37.289062 -128.703125 31.34375 -128.703125 C 25.394531 -128.703125 20.273438 -130.847656 15.984375 -135.140625 C 11.691406 -139.429688 9.546875 -144.550781 9.546875 -150.5 C 9.546875 -156.457031 11.691406 -161.578125 15.984375 -165.859375 Z M 12.453125 -106.5 L 12.453125 0 L 49.203125 0 L 49.203125 -106.5 Z M 12.453125 -106.5 "/></g></g></g><g fill="#ffbd59" fill-opacity="1"><g transform="translate(1046.592901, 273.70169)"><g><path d="M 69.125 -79.515625 C 62.207031 -79.515625 56.253906 -76.953125 51.265625 -71.828125 C 46.285156 -66.703125 43.796875 -60.546875 43.796875 -53.359375 C 43.796875 -46.015625 46.285156 -39.78125 51.265625 -34.65625 C 56.253906 -29.539062 62.207031 -26.984375 69.125 -26.984375 C 72.445312 -26.984375 75.59375 -27.398438 78.5625 -28.234375 C 81.539062 -29.066406 83.722656 -29.894531 85.109375 -30.71875 L 86.984375 -31.96875 L 99.4375 -6.4375 C 98.46875 -5.738281 97.117188 -4.867188 95.390625 -3.828125 C 93.660156 -2.796875 89.710938 -1.382812 83.546875 0.40625 C 77.390625 2.207031 70.785156 3.109375 63.734375 3.109375 C 48.085938 3.109375 34.347656 -2.390625 22.515625 -13.390625 C 10.691406 -24.390625 4.78125 -37.570312 4.78125 -52.9375 C 4.78125 -68.4375 10.691406 -81.753906 22.515625 -92.890625 C 34.347656 -104.035156 48.085938 -109.609375 63.734375 -109.609375 C 70.785156 -109.609375 77.285156 -108.773438 83.234375 -107.109375 C 89.191406 -105.453125 93.414062 -103.796875 95.90625 -102.140625 L 99.4375 -99.640625 L 86.984375 -74.53125 C 82.410156 -77.851562 76.457031 -79.515625 69.125 -79.515625 Z M 69.125 -79.515625 "/></g></g></g><g fill="#ffbd59" fill-opacity="1"><g transform="translate(1148.517799, 273.70169)"><g><path d="M 134.109375 -106.5 L 83.453125 -55.640625 L 139.09375 0 L 91.75 0 L 49.203125 -42.5625 L 49.203125 0 L 12.453125 0 L 12.453125 -178.53125 L 49.203125 -178.53125 L 49.203125 -69.34375 L 86.359375 -106.5 Z M 134.109375 -106.5 "/></g></g></g><g fill="#ffbd59" fill-opacity="1"><g transform="translate(1282.630125, 273.70169)"><g/></g></g><g fill="#ffbd59" fill-opacity="1"><g transform="translate(323.160325, 485.188145)"><g><path d="M 51.484375 -171.265625 L 51.484375 -34.25 L 110.4375 -34.25 L 110.4375 0 L 12.453125 0 L 12.453125 -171.265625 Z M 51.484375 -171.265625 "/></g></g></g><g fill="#ffbd59" fill-opacity="1"><g transform="translate(440.446617, 485.188145)"><g><path d="M 15.984375 -165.859375 C 20.273438 -170.148438 25.394531 -172.296875 31.34375 -172.296875 C 37.289062 -172.296875 42.410156 -170.148438 46.703125 -165.859375 C 50.992188 -161.578125 53.140625 -156.457031 53.140625 -150.5 C 53.140625 -144.550781 50.992188 -139.429688 46.703125 -135.140625 C 42.410156 -130.847656 37.289062 -128.703125 31.34375 -128.703125 C 25.394531 -128.703125 20.273438 -130.847656 15.984375 -135.140625 C 11.691406 -139.429688 9.546875 -144.550781 9.546875 -150.5 C 9.546875 -156.457031 11.691406 -161.578125 15.984375 -165.859375 Z M 12.453125 -106.5 L 12.453125 0 L 49.203125 0 L 49.203125 -106.5 Z M 12.453125 -106.5 "/></g></g></g><g fill="#ffbd59" fill-opacity="1"><g transform="translate(503.137708, 485.188145)"><g><path d="M 58.75 -109.609375 C 64.84375 -109.609375 70.863281 -108.914062 76.8125 -107.53125 C 82.757812 -106.144531 87.1875 -104.757812 90.09375 -103.375 L 94.453125 -101.3125 L 82.421875 -77.21875 C 74.109375 -81.65625 66.21875 -83.875 58.75 -83.875 C 54.59375 -83.875 51.648438 -83.421875 49.921875 -82.515625 C 48.191406 -81.617188 47.328125 -79.925781 47.328125 -77.4375 C 47.328125 -76.882812 47.394531 -76.328125 47.53125 -75.765625 C 47.675781 -75.210938 47.953125 -74.691406 48.359375 -74.203125 C 48.773438 -73.722656 49.15625 -73.3125 49.5 -72.96875 C 49.851562 -72.625 50.441406 -72.242188 51.265625 -71.828125 C 52.097656 -71.410156 52.753906 -71.097656 53.234375 -70.890625 C 53.722656 -70.679688 54.519531 -70.367188 55.625 -69.953125 C 56.738281 -69.546875 57.570312 -69.238281 58.125 -69.03125 C 58.675781 -68.820312 59.609375 -68.507812 60.921875 -68.09375 C 62.242188 -67.675781 63.25 -67.398438 63.9375 -67.265625 C 68.226562 -66.015625 71.960938 -64.628906 75.140625 -63.109375 C 78.328125 -61.585938 81.6875 -59.507812 85.21875 -56.875 C 88.75 -54.25 91.484375 -50.925781 93.421875 -46.90625 C 95.359375 -42.894531 96.328125 -38.332031 96.328125 -33.21875 C 96.328125 -9 79.507812 3.109375 45.875 3.109375 C 38.257812 3.109375 31.023438 1.9375 24.171875 -0.40625 C 17.328125 -2.757812 12.382812 -5.113281 9.34375 -7.46875 L 4.78125 -11.203125 L 19.71875 -36.328125 C 20.820312 -35.359375 22.273438 -34.21875 24.078125 -32.90625 C 25.878906 -31.59375 29.128906 -29.789062 33.828125 -27.5 C 38.535156 -25.21875 42.617188 -24.078125 46.078125 -24.078125 C 53.691406 -24.078125 57.5 -26.640625 57.5 -31.765625 C 57.5 -34.117188 56.53125 -35.953125 54.59375 -37.265625 C 52.65625 -38.578125 49.367188 -40.0625 44.734375 -41.71875 C 40.097656 -43.382812 36.46875 -44.910156 33.84375 -46.296875 C 27.195312 -49.753906 21.9375 -53.660156 18.0625 -58.015625 C 14.1875 -62.378906 12.25 -68.160156 12.25 -75.359375 C 12.25 -86.148438 16.429688 -94.554688 24.796875 -100.578125 C 33.171875 -106.597656 44.488281 -109.609375 58.75 -109.609375 Z M 58.75 -109.609375 "/></g></g></g><g fill="#ffbd59" fill-opacity="1"><g transform="translate(605.270201, 485.188145)"><g><path d="M 18.6875 -106.5 L 18.6875 -146.140625 L 55.421875 -146.140625 L 55.421875 -106.5 L 77.84375 -106.5 L 77.84375 -78.46875 L 55.421875 -78.46875 L 55.421875 -44.625 C 55.421875 -34.800781 58.191406 -29.890625 63.734375 -29.890625 C 65.117188 -29.890625 66.570312 -30.164062 68.09375 -30.71875 C 69.613281 -31.269531 70.789062 -31.828125 71.625 -32.390625 L 72.859375 -33.21875 L 82 -3.53125 C 74.113281 0.894531 65.117188 3.109375 55.015625 3.109375 C 48.085938 3.109375 42.132812 1.898438 37.15625 -0.515625 C 32.175781 -2.941406 28.40625 -6.195312 25.84375 -10.28125 C 23.28125 -14.363281 21.445312 -18.648438 20.34375 -23.140625 C 19.238281 -27.640625 18.6875 -32.453125 18.6875 -37.578125 L 18.6875 -78.46875 L 3.328125 -78.46875 L 3.328125 -106.5 Z M 18.6875 -106.5 "/></g></g></g><g fill="#ffbd59" fill-opacity="1"><g transform="translate(687.266789, 485.188145)"><g/></g></g><g fill="#ffbd59" fill-opacity="1"><g transform="translate(743.93785, 485.188145)"><g><path d="M 99.4375 -171.265625 L 168.5625 0 L 126.625 0 L 113.96875 -34.25 L 48.78125 -34.25 L 36.125 0 L -5.8125 0 L 63.3125 -171.265625 Z M 100.6875 -68.5 L 81.578125 -118.328125 L 81.171875 -118.328125 L 62.078125 -68.5 Z M 100.6875 -68.5 "/></g></g></g><g fill="#ffbd59" fill-opacity="1"><g transform="translate(906.685571, 485.188145)"><g><path d="M 122.0625 -93.3125 C 132.03125 -82.445312 137.015625 -69.125 137.015625 -53.34375 C 137.015625 -37.570312 132.03125 -24.21875 122.0625 -13.28125 C 112.101562 -2.351562 99.441406 3.109375 84.078125 3.109375 C 69.960938 3.109375 58.335938 -1.316406 49.203125 -10.171875 L 49.203125 53.96875 L 12.453125 53.96875 L 12.453125 -106.5 L 48.78125 -106.5 L 48.78125 -94.453125 L 49.203125 -94.453125 C 58.335938 -104.554688 69.960938 -109.609375 84.078125 -109.609375 C 99.441406 -109.609375 112.101562 -104.175781 122.0625 -93.3125 Z M 90.8125 -35.28125 C 95.59375 -39.988281 97.984375 -46.007812 97.984375 -53.34375 C 97.984375 -60.6875 95.695312 -66.675781 91.125 -71.3125 C 86.5625 -75.945312 80.546875 -78.265625 73.078125 -78.265625 C 65.878906 -78.265625 59.960938 -75.910156 55.328125 -71.203125 C 50.691406 -66.492188 48.375 -60.546875 48.375 -53.359375 C 48.375 -46.015625 50.757812 -39.988281 55.53125 -35.28125 C 60.300781 -30.582031 66.148438 -28.234375 73.078125 -28.234375 C 80.128906 -28.234375 86.039062 -30.582031 90.8125 -35.28125 Z M 90.8125 -35.28125 "/></g></g></g><g fill="#ffbd59" fill-opacity="1"><g transform="translate(1048.467051, 485.188145)"><g><path d="M 122.0625 -93.3125 C 132.03125 -82.445312 137.015625 -69.125 137.015625 -53.34375 C 137.015625 -37.570312 132.03125 -24.21875 122.0625 -13.28125 C 112.101562 -2.351562 99.441406 3.109375 84.078125 3.109375 C 69.960938 3.109375 58.335938 -1.316406 49.203125 -10.171875 L 49.203125 53.96875 L 12.453125 53.96875 L 12.453125 -106.5 L 48.78125 -106.5 L 48.78125 -94.453125 L 49.203125 -94.453125 C 58.335938 -104.554688 69.960938 -109.609375 84.078125 -109.609375 C 99.441406 -109.609375 112.101562 -104.175781 122.0625 -93.3125 Z M 90.8125 -35.28125 C 95.59375 -39.988281 97.984375 -46.007812 97.984375 -53.34375 C 97.984375 -60.6875 95.695312 -66.675781 91.125 -71.3125 C 86.5625 -75.945312 80.546875 -78.265625 73.078125 -78.265625 C 65.878906 -78.265625 59.960938 -75.910156 55.328125 -71.203125 C 50.691406 -66.492188 48.375 -60.546875 48.375 -53.359375 C 48.375 -46.015625 50.757812 -39.988281 55.53125 -35.28125 C 60.300781 -30.582031 66.148438 -28.234375 73.078125 -28.234375 C 80.128906 -28.234375 86.039062 -30.582031 90.8125 -35.28125 Z M 90.8125 -35.28125 "/></g></g></g></svg>